<?xml version="1.0" encoding="utf-8"?>
<!-- Generator: Adobe Illustrator 19.0.0, SVG Export Plug-In . SVG Version: 6.00 Build 0)  -->
<svg version="1.1" id="Camada_1" xmlns="http://www.w3.org/2000/svg" xmlns:xlink="http://www.w3.org/1999/xlink" x="0px" y="0px"
	 viewBox="0 0 757.5 220.5" style="enable-background:new 0 0 757.5 220.5;" xml:space="preserve">
<style type="text/css">
	.st0{fill:#262262;}
	.st1{fill:url(#XMLID_98_);}
	.st2{fill:url(#XMLID_99_);}
</style>
<g id="XMLID_2_">
	<g id="XMLID_19_">
		<path id="XMLID_3_" class="st0" d="M288.4,95l-5.4,0c-0.6,0-1.1-0.1-1.5-0.4c-0.4-0.3-0.7-0.7-0.9-1.1l-2.8-7.6l-15.4,0.1
			l-2.7,7.6c-0.1,0.4-0.4,0.8-0.8,1.1c-0.4,0.3-0.9,0.5-1.5,0.5l-5.4,0l14.5-37.3l7.1,0L288.4,95z M276.1,80.9l-4.6-12.4
			c-0.2-0.5-0.5-1.2-0.7-2c-0.2-0.8-0.5-1.6-0.7-2.4c-0.2,0.9-0.4,1.7-0.7,2.5c-0.2,0.8-0.5,1.4-0.7,2L264.2,81L276.1,80.9z"/>
		<path id="XMLID_6_" class="st0" d="M353.6,57.4l-11.4,37.3l-6.3,0l-8.2-25.4c-0.2-0.6-0.4-1.4-0.6-2.3c-0.1,0.4-0.2,0.8-0.3,1.2
			c-0.1,0.4-0.2,0.7-0.3,1.1l-8.1,25.5l-6.3,0l-11.7-37.2l5.8,0c0.6,0,1.1,0.1,1.5,0.4c0.4,0.3,0.7,0.7,0.8,1.1l6.4,22.2
			c0.1,0.5,0.3,1.1,0.4,1.8c0.1,0.6,0.3,1.3,0.4,2c0.1-0.7,0.3-1.4,0.4-2c0.2-0.6,0.3-1.2,0.5-1.8l7.2-22.3c0.1-0.4,0.4-0.8,0.8-1.1
			c0.4-0.3,0.9-0.5,1.5-0.5l2,0c0.6,0,1.1,0.1,1.5,0.4c0.4,0.3,0.7,0.7,0.9,1.1l7.4,22.2c0.4,1.1,0.7,2.3,1,3.7
			c0.2-1.4,0.5-2.6,0.7-3.7l6.2-22.3c0.1-0.4,0.4-0.8,0.8-1.1c0.4-0.3,0.9-0.5,1.5-0.5L353.6,57.4z"/>
		<path id="XMLID_8_" class="st0" d="M379.6,62.8l0,10.3l13-0.1l0,5.3l-13,0.1l0,10.5l16.5-0.1l0,5.5l-23.5,0.1l-0.2-37.2l23.5-0.1
			l0,5.5L379.6,62.8z"/>
		<path id="XMLID_10_" class="st0" d="M436.5,63.9c-0.2,0.4-0.4,0.6-0.7,0.8c-0.2,0.2-0.5,0.2-0.9,0.2c-0.4,0-0.8-0.1-1.2-0.4
			c-0.4-0.3-0.9-0.6-1.5-0.9c-0.6-0.3-1.3-0.6-2.1-0.9c-0.8-0.3-1.7-0.4-2.8-0.4c-1,0-1.8,0.1-2.5,0.4s-1.3,0.6-1.8,1
			c-0.5,0.4-0.9,0.9-1.1,1.5c-0.2,0.6-0.4,1.2-0.4,1.9c0,0.9,0.3,1.6,0.7,2.2c0.5,0.6,1.1,1.1,2,1.5c0.8,0.4,1.7,0.8,2.8,1.1
			c1,0.3,2.1,0.7,3.2,1c1.1,0.4,2.1,0.8,3.2,1.3c1,0.5,2,1.1,2.8,1.8c0.8,0.7,1.5,1.7,2,2.7c0.5,1.1,0.7,2.4,0.8,3.9
			c0,1.7-0.3,3.3-0.8,4.7c-0.6,1.5-1.4,2.8-2.5,3.8c-1.1,1.1-2.5,2-4,2.6c-1.6,0.6-3.4,1-5.5,1c-1.2,0-2.4-0.1-3.5-0.3
			c-1.2-0.2-2.3-0.6-3.3-1s-2-0.9-3-1.5c-0.9-0.6-1.8-1.3-2.5-2l2-3.3c0.2-0.2,0.4-0.4,0.7-0.6c0.3-0.2,0.6-0.2,0.9-0.3
			c0.4,0,0.9,0.2,1.4,0.5c0.5,0.3,1.1,0.7,1.8,1.2c0.7,0.4,1.5,0.8,2.4,1.2c0.9,0.3,2,0.5,3.3,0.5c2,0,3.5-0.5,4.6-1.4
			c1.1-0.9,1.6-2.3,1.6-4c0-1-0.3-1.8-0.7-2.4c-0.5-0.6-1.1-1.1-2-1.5c-0.8-0.4-1.7-0.8-2.8-1.1c-1-0.3-2.1-0.6-3.1-0.9
			c-1.1-0.3-2.1-0.7-3.1-1.2s-2-1.1-2.8-1.9c-0.8-0.8-1.5-1.7-2-2.9c-0.5-1.2-0.7-2.6-0.8-4.3c0-1.4,0.3-2.7,0.8-4
			c0.5-1.3,1.3-2.4,2.3-3.4c1-1,2.3-1.8,3.8-2.4c1.5-0.6,3.2-0.9,5.2-0.9c2.2,0,4.2,0.3,6.1,1c1.9,0.7,3.4,1.6,4.8,2.9L436.5,63.9z"
			/>
		<path id="XMLID_12_" class="st0" d="M494.9,75.5c0,2.7-0.4,5.3-1.3,7.6c-0.9,2.3-2.2,4.3-3.8,6.1c-1.6,1.7-3.6,3-5.9,4
			c-2.3,1-4.9,1.4-7.7,1.5c-2.8,0-5.4-0.5-7.7-1.4c-2.3-0.9-4.3-2.3-6-4c-1.7-1.7-3-3.7-3.9-6c-0.9-2.3-1.4-4.8-1.4-7.6
			c0-2.7,0.4-5.3,1.3-7.6c0.9-2.3,2.2-4.3,3.8-6.1s3.6-3,5.9-4c2.3-1,4.9-1.5,7.7-1.5c1.9,0,3.7,0.2,5.3,0.6c1.7,0.4,3.2,1,4.6,1.8
			c1.4,0.8,2.6,1.8,3.8,2.9c1.1,1.1,2.1,2.4,2.8,3.8c0.8,1.4,1.4,2.9,1.8,4.6C494.6,71.9,494.9,73.7,494.9,75.5z M487.8,75.5
			c0-2-0.3-3.9-0.8-5.5c-0.6-1.6-1.3-3-2.4-4.1c-1-1.1-2.3-2-3.7-2.6c-1.5-0.6-3.1-0.9-4.9-0.9c-1.8,0-3.5,0.3-4.9,0.9
			c-1.4,0.6-2.7,1.5-3.7,2.6c-1,1.1-1.8,2.5-2.3,4.1c-0.5,1.6-0.8,3.5-0.8,5.5c0,2,0.3,3.9,0.8,5.5c0.6,1.6,1.3,3,2.4,4.1
			c1,1.1,2.3,2,3.7,2.6c1.5,0.6,3.1,0.9,4.9,0.9c1.8,0,3.5-0.3,4.9-0.9c1.4-0.6,2.7-1.5,3.7-2.6c1-1.1,1.8-2.5,2.3-4.1
			C487.5,79.4,487.8,77.5,487.8,75.5z"/>
		<path id="XMLID_15_" class="st0" d="M555.7,56.6l0.2,37.2l-6.1,0l-0.1-24c0-1,0-2,0.1-3.1l-11.2,21.2c-0.5,1-1.3,1.5-2.4,1.5l-1,0
			c-1.1,0-1.9-0.5-2.5-1.5l-11.5-21.2c0.1,0.6,0.1,1.1,0.1,1.7c0,0.5,0.1,1.1,0.1,1.5l0.1,24l-6.1,0l-0.2-37.2l5.2,0
			c0.3,0,0.6,0,0.8,0c0.2,0,0.4,0.1,0.6,0.1c0.2,0.1,0.3,0.2,0.5,0.3c0.1,0.2,0.3,0.4,0.4,0.6l11.2,20.6c0.3,0.5,0.6,1.1,0.8,1.7
			c0.3,0.6,0.5,1.2,0.7,1.8c0.2-0.6,0.5-1.3,0.7-1.8c0.3-0.6,0.5-1.2,0.8-1.7l10.9-20.7c0.1-0.3,0.3-0.5,0.4-0.6
			c0.2-0.2,0.3-0.3,0.5-0.3c0.2-0.1,0.4-0.1,0.6-0.1c0.2,0,0.5,0,0.8,0L555.7,56.6z"/>
		<path id="XMLID_17_" class="st0" d="M585.4,62l0,10.3l13-0.1l0,5.3l-13,0.1l0,10.5l16.5-0.1l0,5.5l-23.5,0.1l-0.2-37.2l23.5-0.1
			l0,5.5L585.4,62z"/>
		<path id="XMLID_22_" class="st0" d="M285.8,164l-6.3,0c-1.2,0-2-0.5-2.6-1.4l-7.9-11.9c-0.3-0.4-0.6-0.8-1-0.9
			c-0.4-0.2-0.9-0.3-1.6-0.3l-3,0l0.1,14.5l-6.9,0l-0.2-37.2l11.4,0c2.5,0,4.7,0.2,6.5,0.8c1.8,0.5,3.3,1.2,4.5,2.2
			c1.2,0.9,2,2.1,2.6,3.4c0.6,1.3,0.8,2.8,0.8,4.3c0,1.3-0.2,2.4-0.5,3.6c-0.4,1.1-0.9,2.1-1.6,3c-0.7,0.9-1.5,1.7-2.6,2.4
			c-1,0.7-2.2,1.2-3.5,1.6c0.4,0.3,0.9,0.6,1.2,0.9c0.4,0.4,0.7,0.8,1,1.2L285.8,164z M267.9,144.5c1.3,0,2.4-0.2,3.4-0.5
			c1-0.3,1.8-0.8,2.4-1.4c0.6-0.6,1.1-1.3,1.4-2.1c0.3-0.8,0.5-1.7,0.5-2.6c0-1.9-0.6-3.3-1.9-4.3c-1.2-1-3.2-1.5-5.7-1.5l-4.4,0
			l0.1,12.4L267.9,144.5z"/>
		<path id="XMLID_25_" class="st0" d="M311.1,132.1l0,10.3l13-0.1l0,5.3l-13,0.1l0,10.5l16.5-0.1l0,5.5l-23.5,0.1l-0.2-37.2
			l23.5-0.1l0,5.5L311.1,132.1z"/>
		<path id="XMLID_27_" class="st0" d="M380.2,163.6l-5.4,0c-0.6,0-1.1-0.1-1.5-0.4c-0.4-0.3-0.7-0.7-0.9-1.1l-2.8-7.6l-15.4,0.1
			l-2.7,7.6c-0.1,0.4-0.4,0.8-0.8,1.1c-0.4,0.3-0.9,0.5-1.5,0.5l-5.4,0l14.5-37.3l7.1,0L380.2,163.6z M367.9,149.6l-4.6-12.4
			c-0.2-0.5-0.5-1.2-0.7-2c-0.2-0.8-0.5-1.6-0.7-2.4c-0.2,0.9-0.4,1.7-0.7,2.5c-0.2,0.8-0.5,1.4-0.7,2l-4.5,12.4L367.9,149.6z"/>
		<path id="XMLID_30_" class="st0" d="M422.9,154.6c0.4,0,0.7,0.1,1,0.4l2.7,2.9c-1.5,1.9-3.4,3.3-5.6,4.3c-2.2,1-4.8,1.5-7.9,1.5
			c-2.8,0-5.3-0.4-7.5-1.4c-2.2-0.9-4.1-2.2-5.7-3.9c-1.6-1.7-2.8-3.7-3.6-6c-0.8-2.3-1.3-4.9-1.3-7.6c0-2.8,0.4-5.4,1.3-7.7
			c0.9-2.3,2.1-4.3,3.7-6c1.6-1.7,3.5-3,5.8-3.9c2.2-0.9,4.7-1.4,7.5-1.4c2.7,0,5.1,0.4,7.2,1.3c2.1,0.9,3.9,2,5.4,3.5l-2.3,3.2
			c-0.1,0.2-0.3,0.4-0.5,0.5c-0.2,0.2-0.5,0.2-0.9,0.2c-0.3,0-0.5-0.1-0.8-0.2c-0.3-0.1-0.6-0.3-0.9-0.5c-0.3-0.2-0.7-0.4-1.1-0.7
			c-0.4-0.3-0.9-0.5-1.5-0.7c-0.6-0.2-1.2-0.4-2-0.5c-0.7-0.1-1.6-0.2-2.6-0.2c-1.7,0-3.2,0.3-4.6,0.9c-1.4,0.6-2.6,1.5-3.6,2.6
			c-1,1.1-1.8,2.5-2.3,4.1c-0.5,1.6-0.8,3.5-0.8,5.6c0,2.1,0.3,4,0.9,5.6c0.6,1.6,1.4,3,2.4,4.1c1,1.1,2.2,2,3.6,2.5
			c1.4,0.6,2.9,0.9,4.4,0.9c0.9,0,1.8-0.1,2.6-0.2c0.8-0.1,1.5-0.3,2.1-0.5c0.6-0.2,1.3-0.5,1.8-0.9c0.6-0.4,1.1-0.8,1.7-1.3
			c0.2-0.2,0.4-0.3,0.5-0.4C422.5,154.7,422.7,154.6,422.9,154.6z"/>
		<path id="XMLID_32_" class="st0" d="M471.7,131.6l-11.2,0l0.1,31.5l-6.9,0l-0.1-31.5l-11.2,0l0-5.7l29.4-0.1L471.7,131.6z"/>
		<path id="XMLID_34_" class="st0" d="M540.8,131.3l-11.2,0l0.1,31.5l-6.9,0l-0.1-31.5l-11.2,0l0-5.7l29.4-0.1L540.8,131.3z"/>
		<path id="XMLID_36_" class="st0" d="M594.5,144.1c0,2.7-0.4,5.3-1.3,7.6c-0.9,2.3-2.2,4.3-3.8,6.1c-1.6,1.7-3.6,3-5.9,4
			c-2.3,1-4.9,1.4-7.7,1.5c-2.8,0-5.4-0.5-7.7-1.4c-2.3-0.9-4.3-2.3-6-4c-1.7-1.7-3-3.7-3.9-6c-0.9-2.3-1.4-4.8-1.4-7.6
			c0-2.7,0.4-5.3,1.3-7.6c0.9-2.3,2.2-4.3,3.8-6.1c1.6-1.7,3.6-3,5.9-4c2.3-1,4.9-1.5,7.7-1.5c1.9,0,3.7,0.2,5.3,0.6
			c1.7,0.4,3.2,1,4.6,1.8c1.4,0.8,2.6,1.8,3.8,2.9c1.1,1.1,2.1,2.4,2.8,3.8c0.8,1.4,1.4,2.9,1.8,4.6
			C594.3,140.5,594.5,142.2,594.5,144.1z M587.4,144.1c0-2-0.3-3.9-0.8-5.5c-0.6-1.6-1.3-3-2.4-4.1c-1-1.1-2.3-2-3.7-2.6
			c-1.5-0.6-3.1-0.9-4.9-0.9c-1.8,0-3.5,0.3-4.9,0.9c-1.4,0.6-2.7,1.5-3.7,2.6c-1,1.1-1.8,2.5-2.3,4.1c-0.5,1.6-0.8,3.5-0.8,5.5
			c0,2,0.3,3.9,0.8,5.5c0.6,1.6,1.3,3,2.4,4.1c1,1.1,2.3,2,3.7,2.6c1.5,0.6,3.1,0.9,4.9,0.9c1.8,0,3.5-0.3,4.9-0.9
			c1.4-0.6,2.7-1.5,3.7-2.6c1-1.1,1.8-2.5,2.3-4.1C587.1,148,587.4,146.1,587.4,144.1z"/>
		<path id="XMLID_39_" class="st0" d="M650.5,143.8c0,2.7-0.4,5.3-1.3,7.6c-0.9,2.3-2.2,4.3-3.8,6.1c-1.6,1.7-3.6,3-5.9,4
			c-2.3,1-4.9,1.4-7.7,1.5c-2.8,0-5.4-0.5-7.7-1.4c-2.3-0.9-4.3-2.3-6-4c-1.7-1.7-3-3.7-3.9-6c-0.9-2.3-1.4-4.8-1.4-7.6
			c0-2.7,0.4-5.3,1.3-7.6c0.9-2.3,2.2-4.3,3.8-6.1c1.6-1.7,3.6-3,5.9-4c2.3-1,4.9-1.5,7.7-1.5c1.9,0,3.7,0.2,5.3,0.6
			c1.7,0.4,3.2,1,4.6,1.8c1.4,0.8,2.6,1.8,3.8,2.9c1.1,1.1,2.1,2.4,2.8,3.8c0.8,1.4,1.4,2.9,1.8,4.6
			C650.3,140.3,650.5,142,650.5,143.8z M643.4,143.9c0-2-0.3-3.9-0.8-5.5c-0.6-1.6-1.3-3-2.4-4.1c-1-1.1-2.3-2-3.7-2.6
			c-1.5-0.6-3.1-0.9-4.9-0.9c-1.8,0-3.5,0.3-4.9,0.9c-1.4,0.6-2.7,1.5-3.7,2.6c-1,1.1-1.8,2.5-2.3,4.1c-0.5,1.6-0.8,3.5-0.8,5.5
			c0,2,0.3,3.9,0.8,5.5c0.6,1.6,1.3,3,2.4,4.1c1,1.1,2.3,2,3.7,2.6c1.5,0.6,3.1,0.9,4.9,0.9c1.8,0,3.5-0.3,4.9-0.9
			c1.4-0.6,2.7-1.5,3.7-2.6c1-1.1,1.8-2.5,2.3-4.1C643.2,147.7,643.4,145.9,643.4,143.9z"/>
		<path id="XMLID_42_" class="st0" d="M692.9,156.5l0,5.7l-21.8,0.1l-0.2-37.2l6.9,0l0.1,31.5L692.9,156.5z"/>
		<path id="XMLID_44_" class="st0" d="M732,131.6c-0.2,0.4-0.4,0.6-0.7,0.8c-0.2,0.2-0.5,0.2-0.9,0.2c-0.4,0-0.8-0.1-1.2-0.4
			c-0.4-0.3-0.9-0.6-1.5-0.9c-0.6-0.3-1.3-0.6-2.1-0.9c-0.8-0.3-1.7-0.4-2.8-0.4c-1,0-1.8,0.1-2.5,0.4c-0.7,0.2-1.3,0.6-1.8,1
			c-0.5,0.4-0.9,0.9-1.1,1.5c-0.2,0.6-0.4,1.2-0.4,1.9c0,0.9,0.3,1.6,0.7,2.2c0.5,0.6,1.1,1.1,2,1.5c0.8,0.4,1.7,0.8,2.8,1.1
			c1,0.3,2.1,0.7,3.2,1c1.1,0.4,2.1,0.8,3.2,1.3c1,0.5,2,1.1,2.8,1.8c0.8,0.7,1.5,1.7,2,2.7c0.5,1.1,0.7,2.4,0.8,3.9
			c0,1.7-0.3,3.3-0.8,4.7c-0.6,1.5-1.4,2.8-2.5,3.8c-1.1,1.1-2.5,2-4,2.6c-1.6,0.6-3.4,1-5.5,1c-1.2,0-2.4-0.1-3.5-0.3
			c-1.2-0.2-2.3-0.6-3.3-1c-1.1-0.4-2.1-0.9-3-1.5c-0.9-0.6-1.8-1.3-2.5-2l2-3.3c0.2-0.2,0.4-0.4,0.7-0.6c0.3-0.2,0.6-0.2,0.9-0.2
			c0.4,0,0.9,0.2,1.4,0.5c0.5,0.3,1.1,0.7,1.8,1.2c0.7,0.4,1.5,0.8,2.4,1.2c0.9,0.3,2,0.5,3.3,0.5c2,0,3.5-0.5,4.6-1.4
			c1.1-0.9,1.6-2.3,1.6-4c0-1-0.3-1.8-0.7-2.4c-0.5-0.6-1.1-1.1-2-1.5c-0.8-0.4-1.7-0.8-2.8-1.1c-1-0.3-2.1-0.6-3.1-0.9
			c-1.1-0.3-2.1-0.7-3.1-1.2c-1-0.5-2-1.1-2.8-1.9c-0.8-0.8-1.5-1.7-2-2.9c-0.5-1.2-0.7-2.6-0.8-4.3c0-1.4,0.3-2.7,0.8-4
			c0.5-1.3,1.3-2.4,2.3-3.4c1-1,2.3-1.8,3.8-2.4c1.5-0.6,3.2-0.9,5.2-0.9c2.2,0,4.2,0.3,6.1,1c1.9,0.7,3.4,1.6,4.8,2.9L732,131.6z"
			/>
	</g>
	<g id="XMLID_1_">
		<linearGradient id="XMLID_98_" gradientUnits="userSpaceOnUse" x1="108.9561" y1="193.8378" x2="108.9561" y2="22.5179">
			<stop  offset="0" style="stop-color:#262262"/>
			<stop  offset="1" style="stop-color:#DA1C5C"/>
		</linearGradient>
		<path id="XMLID_106_" class="st1" d="M23,112.3c0-1.5,0-3,0-4.4c0.1-0.1,0.2-0.2,0.2-0.3c0.8-4.1,2.9-7.4,5.8-10.4
			c5.2-5.4,11.6-8.9,18.4-11.7c3.8-1.6,7.7-2.8,11.6-4.3c-0.1-0.3-0.1-0.7-0.2-1.1c-1.6-7-2.7-14-2.6-21.2c0.1-5.2,0.7-10.2,2.7-15
			c2.1-4.8,5.4-8.4,10.7-9.6c1.1-0.3,2.2-0.4,3.3-0.6c0.6,0,1.1,0,1.7,0c0.1,0.1,0.3,0.2,0.4,0.2c3.4,0.2,6.5,1.1,9.6,2.3
			c7.5,3,14,7.6,20.1,12.8c1.4,1.2,2.7,2.4,3.9,3.5c3-2.5,5.8-5.1,8.8-7.4c5.7-4.4,11.8-8.2,18.8-10.2c1.5-0.4,3-0.7,4.5-1.1
			c1.8,0,3.6,0,5.4,0c0.3,0.1,0.5,0.2,0.8,0.3c3,0.6,5.6,1.9,7.7,4.1c2.2,2.3,3.6,5,4.6,8c2.4,7.3,2.4,14.8,1.6,22.3
			c-0.5,4.3-1.3,8.6-2.1,13c0.2,0.1,0.5,0.2,0.8,0.3c7.9,2.4,15.5,5.4,22.4,10c4.3,2.9,8.3,6.2,10.7,11c1,2,1.4,4.2,2.1,6.3
			c0,0.6,0,1.1,0,1.7c-0.4,1.5-0.6,3-1.1,4.4c-1.6,4.4-4.6,7.7-8.2,10.6c-6.3,5.2-13.6,8.6-21.2,11.4c-1.7,0.6-3.5,1.2-5.2,1.8
			c0.1,0.3,0.1,0.6,0.1,0.8c1.7,7.4,2.7,14.8,2.4,22.4c-0.2,5.1-1,10.1-3.3,14.8c-2.1,4.3-5.1,7.6-9.9,9c-1.1,0.3-2.3,0.5-3.4,0.8
			c-0.9,0-1.8,0-2.7,0c-0.2-0.1-0.5-0.2-0.7-0.2c-2.4-0.5-4.9-0.9-7.3-1.7c-7.4-2.5-13.8-6.9-19.8-11.9c-1.9-1.6-3.7-3.2-5.5-4.9
			c-0.2,0.2-0.4,0.4-0.7,0.6c-3.7,3-7.2,6.2-11.1,9c-6.2,4.4-12.8,7.7-20.5,8.8c-7.9,1.1-14.3-2.1-17.6-9.3c-0.9-1.9-1.6-4-2-6
			c-1.8-8-1.3-16,0.1-23.9c0.4-2.6,1-5.2,1.5-7.8c-0.5-0.1-0.8-0.3-1.2-0.4c-6.4-2-12.7-4.5-18.5-7.9c-5.2-3.1-10-6.7-13.2-11.9
			C24.7,117,24,114.6,23,112.3z M108.9,138c4.8-0.2,9.7-0.4,14.7-0.6c0.5,0,1.3-0.4,1.6-0.9c5.4-8.2,10.4-16.7,14.7-25.6
			c0.2-0.4,0.3-1.1,0.1-1.6c-4.4-8.8-9.3-17.3-14.8-25.5c-0.3-0.4-0.9-0.8-1.5-0.8c-9.8-0.8-19.7-0.8-29.5,0c-0.5,0-1.2,0.4-1.4,0.8
			C87.1,92,82.3,100.5,78,109.4c-0.2,0.4-0.2,1.1,0,1.6c4.3,8.9,9.3,17.5,14.9,25.7c0.3,0.4,0.8,0.7,1.3,0.7
			C99,137.7,103.9,137.8,108.9,138z M61,132.3c0.1-0.3,0.2-0.5,0.2-0.6c2.7-6.9,5.3-13.8,8-20.7c0.2-0.5,0.1-1.1-0.1-1.6
			c-2.3-6.1-4.7-12.1-7.1-18.2c-0.3-0.9-0.6-1.8-0.9-2.7c-8.3,2.4-16.1,5.4-23,10.5c-2.7,2-5.2,4.3-6.8,7.3c-1.3,2.4-1.4,4.9,0,7.3
			c1.1,1.9,2.4,3.8,4.1,5.4C42.6,125.8,51.5,129.4,61,132.3z M103.9,162.9c-4.8-6.1-9.5-12.1-14.3-18.1c-0.2-0.3-0.8-0.4-1.2-0.5
			c-5-0.6-9.9-1.2-14.9-1.9c-2.5-0.3-4.9-0.9-7.4-1.3c-0.1,0.2-0.2,0.4-0.2,0.5c-1.9,7.6-3,15.4-2.3,23.3c0.3,3.5,0.9,6.9,2.7,10
			c1.2,2,2.8,3.6,5.2,4c2.9,0.6,5.8,0.1,8.6-0.8C89.5,175.2,97,169.3,103.9,162.9z M114.3,162.6c0.2,0.2,0.3,0.3,0.4,0.5
			c4.1,3.9,8.3,7.4,13.1,10.4c4.5,2.8,9.1,5.1,14.4,5.8c4.3,0.5,7.3-1,9.3-4.8c1.4-2.7,2.1-5.6,2.5-8.6c0.9-6.5,0.3-13-0.8-19.5
			c-0.3-1.9-0.8-3.7-1.1-5.2c-7.7,1.1-15.1,2.1-22.5,3.2c-0.5,0.1-1.1,0.5-1.5,0.9c-2.8,3.7-5.5,7.4-8.4,11.1
			C118,158.4,116.2,160.5,114.3,162.6z M66.1,79.6c0.5,0,0.7,0,0.9-0.1c7.1-1.1,14.2-2.2,21.4-3.4c0.5-0.1,1-0.4,1.4-0.8
			c2.7-3.4,5.3-6.9,8-10.3c1.9-2.4,4-4.7,6.1-7.1c-4.9-4.7-10.2-8.9-16.2-12.2c-4-2.2-8.2-4-12.8-4.5c-4-0.4-6.9,1-8.6,4.5
			c-1,2-1.7,4.3-2.1,6.5c-1.1,5.7-0.8,11.5,0.1,17.3C64.8,72.9,65.5,76.2,66.1,79.6z M151.5,79.7c0.1-0.3,0.2-0.4,0.2-0.6
			c1.7-7.3,2.7-14.7,2.2-22.2c-0.2-3.9-0.9-7.7-2.7-11.2c-1.7-3.3-4.4-5-8.2-4.6c-1.9,0.2-3.9,0.6-5.8,1.2
			c-6.5,2.2-12.1,6-17.3,10.3c-2,1.7-4,3.5-5.7,5c4.7,6.1,9.3,12,13.9,17.9c0.2,0.3,0.7,0.5,1.1,0.6c5.1,0.7,10.1,1.4,15.2,2.2
			C146.9,78.7,149.2,79.2,151.5,79.7z M156.9,88.6c-0.2,0.2-0.3,0.3-0.3,0.4c-2.6,6.8-5.3,13.6-7.9,20.4c-0.2,0.4-0.1,1,0.1,1.5
			c2.1,5.2,4.3,10.3,6.4,15.5c0.7,1.8,1.3,3.6,1.9,5.5c2.5-0.9,5-1.7,7.4-2.6c6.7-2.6,13.1-5.7,18.3-10.8c6.1-6,6.1-10.4,0.7-16.2
			c-0.2-0.2-0.4-0.4-0.6-0.6C175.4,95,166.3,91.5,156.9,88.6z M150.2,133.8c-2-5.3-3.9-10.2-5.9-15.3c-3.5,6.1-6.9,12-10.4,18.1
			C139.4,135.7,144.6,134.8,150.2,133.8z M73.5,118.8c-1.9,5.2-3.7,10.1-5.6,15.4c5.5,0.9,10.6,1.7,16,2.6
			C80.4,130.6,77.1,124.9,73.5,118.8z M98.6,145c3.6,4.3,7,8.3,10.5,12.6c3.5-4.3,6.8-8.4,10.2-12.6C112.4,145,105.7,145,98.6,145z
			 M134,83.9c3.5,6,6.8,11.8,10.3,17.8c1.9-5,3.7-9.9,5.6-15C144.5,85.7,139.3,84.8,134,83.9z M119.2,75.3
			c-3.5-4.2-6.8-8.2-10.3-12.4c-3.5,4.3-6.9,8.2-10.3,12.4C105.6,75.3,112.2,75.3,119.2,75.3z M68,86.6c1.9,5.2,3.7,10,5.5,15
			c3.5-6,6.8-11.8,10.2-17.7C78.5,84.8,73.4,85.7,68,86.6z"/>
		<linearGradient id="XMLID_99_" gradientUnits="userSpaceOnUse" x1="108.8538" y1="193.3869" x2="108.8538" y2="22.067">
			<stop  offset="0" style="stop-color:#262262"/>
			<stop  offset="1" style="stop-color:#DA1C5C"/>
		</linearGradient>
		<path id="XMLID_85_" class="st2" d="M124.2,110c0,8.6-6.8,15.4-15.4,15.4c-8.5,0-15.3-6.8-15.4-15.3c0-8.5,6.9-15.4,15.4-15.4
			C117.4,94.6,124.2,101.5,124.2,110z"/>
	</g>
</g>
</svg>
